#Comment line ignore any data following # character 
#Hierarchical Translation and Rotation (.htr) file 
[Header]	
#Header keywords are followed by a single value 
FileType HTR		#Single word string
DataType HTRS		#Translation followed by rotation and scale data
FileVersion 1		#integer
NumSegments 84		#integer
NumFrames 2		#integer
DataFrameRate 30		#integer, data frame rate in this file
EulerRotationOrder ZYX
CalibrationUnits mm
RotationUnits Degrees
GlobalAxisofGravity Y
BoneLengthAxis Y
ScaleFactor 1.00
[SegmentNames&Hierarchy]
#CHILD	PARENT
MASTER GLOBAL
root MASTER
chest root
L_mid_tent01 root
R_mid_tent01 root
spine01 root
Bip01_Neck chest
L_humerus chest
R_humerus chest
weapon_bone chest
Bip01_Head Bip01_Neck
eye_left_bone Bip01_Head
eye_right_bone Bip01_Head
L_forearm L_humerus
L_front_hand L_forearm
L_weapon_bone L_forearm
L_front_hand01_01 L_front_hand
L_front_hand02_01 L_front_hand
L_front_hand03_01 L_front_hand
L_front_hand01_02 L_front_hand01_01
L_front_hand02_02 L_front_hand02_01
L_front_hand03_02 L_front_hand03_01
R_forearm R_humerus
R_front_hand R_forearm
R_weapon_bone R_forearm
R_front_hand01_01 R_front_hand
R_front_hand02_01 R_front_hand
R_front_hand03_01 R_front_hand
R_front_hand01_02 R_front_hand01_01
R_front_hand02_02 R_front_hand02_01
R_front_hand03_02 R_front_hand03_01
null_rope01_connect L_mid_tent01
Rope1_Seg01 null_rope01_connect
Rope1_Seg02 Rope1_Seg01
Rope1_Seg03 Rope1_Seg02
Rope1_Seg04 Rope1_Seg03
Rope1_Seg05 Rope1_Seg04
Rope1_Seg06 Rope1_Seg05
Rope1_Seg07 Rope1_Seg06
Rope1_Seg09 Rope1_Seg07
L_mid_hand01 Rope1_Seg09
L_mid_hand02 Rope1_Seg09
L_mid_hand03 Rope1_Seg09
null_rope02_connect R_mid_tent01
Rope2_Seg01 null_rope02_connect
Rope2_Seg02 Rope2_Seg01
Rope2_Seg03 Rope2_Seg02
Rope2_Seg04 Rope2_Seg03
Rope2_Seg05 Rope2_Seg04
Rope2_Seg06 Rope2_Seg05
Rope2_Seg07 Rope2_Seg06
Rope2_Seg09 Rope2_Seg07
R_mid_hand01 Rope2_Seg09
R_mid_hand02 Rope2_Seg09
R_mid_hand03 Rope2_Seg09
spine02 spine01
spine03 spine02
pelvis spine03
null_rope03_connect pelvis
null_rope04_connect pelvis
Rope3_Seg01 null_rope03_connect
Rope3_Seg02 Rope3_Seg01
Rope3_Seg03 Rope3_Seg02
Rope3_Seg04 Rope3_Seg03
Rope3_Seg05 Rope3_Seg04
Rope3_Seg06 Rope3_Seg05
Rope3_Seg07 Rope3_Seg06
Rope3_Seg08 Rope3_Seg07
Rope3_Seg09 Rope3_Seg08
R_rear_hand01 Rope3_Seg09
R_rear_hand02 Rope3_Seg09
R_rear_hand03 Rope3_Seg09
Rope4_Seg01 null_rope04_connect
Rope4_Seg02 Rope4_Seg01
Rope4_Seg03 Rope4_Seg02
Rope4_Seg04 Rope4_Seg03
Rope4_Seg05 Rope4_Seg04
Rope4_Seg06 Rope4_Seg05
Rope4_Seg07 Rope4_Seg06
Rope4_Seg08 Rope4_Seg07
Rope4_Seg09 Rope4_Seg08
L_rear_hand01 Rope4_Seg09
L_rear_hand02 Rope4_Seg09
L_rear_hand03 Rope4_Seg09
[BasePosition]
#SegmentName Tx, Ty, Tz, Rx, Ry, Rz, BoneLength
MASTER 0.000000 0.000000 0.000000 -90.000000 0.000000 0.000000 10.000000 
root 0.000000 0.000000 0.000000 0.000000 0.000000 0.000000 10.000000 
chest 0.000000 0.000000 0.000000 0.000000 0.000000 0.000000 10.000000 
L_mid_tent01 0.000000 0.000000 0.000000 0.000000 0.000000 0.000000 10.000000 
R_mid_tent01 0.000000 0.000000 0.000000 0.000000 0.000000 0.000000 10.000000 
spine01 0.000000 0.000000 0.000000 0.000000 0.000000 0.000000 10.000000 
Bip01_Neck 0.000000 0.000000 0.000000 0.000000 0.000000 0.000000 10.000000 
L_humerus 0.000000 0.000000 0.000000 0.000000 0.000000 0.000000 10.000000 
R_humerus 0.000000 0.000000 0.000000 0.000000 0.000000 0.000000 10.000000 
weapon_bone 0.000000 0.000000 0.000000 0.000000 0.000000 0.000000 10.000000 
Bip01_Head 0.000000 0.000000 0.000000 0.000000 0.000000 0.000000 10.000000 
eye_left_bone 0.000000 0.000000 0.000000 0.000000 0.000000 0.000000 10.000000 
eye_right_bone 0.000000 0.000000 0.000000 0.000000 0.000000 0.000000 10.000000 
L_forearm 0.000000 0.000000 0.000000 0.000000 0.000000 0.000000 10.000000 
L_front_hand 0.000000 0.000000 0.000000 0.000000 0.000000 0.000000 10.000000 
L_weapon_bone 0.000000 0.000000 0.000000 0.000000 0.000000 0.000000 10.000000 
L_front_hand01_01 0.000000 0.000000 0.000000 0.000000 0.000000 0.000000 10.000000 
L_front_hand02_01 0.000000 0.000000 0.000000 0.000000 0.000000 0.000000 10.000000 
L_front_hand03_01 0.000000 0.000000 0.000000 0.000000 0.000000 0.000000 10.000000 
L_front_hand01_02 0.000000 0.000000 0.000000 0.000000 0.000000 0.000000 10.000000 
L_front_hand02_02 0.000000 0.000000 0.000000 0.000000 0.000000 0.000000 10.000000 
L_front_hand03_02 0.000000 0.000000 0.000000 0.000000 0.000000 0.000000 10.000000 
R_forearm 0.000000 0.000000 0.000000 0.000000 0.000000 0.000000 10.000000 
R_front_hand 0.000000 0.000000 0.000000 0.000000 0.000000 0.000000 10.000000 
R_weapon_bone 0.000000 0.000000 0.000000 0.000000 0.000000 0.000000 10.000000 
R_front_hand01_01 0.000000 0.000000 0.000000 0.000000 0.000000 0.000000 10.000000 
R_front_hand02_01 0.000000 0.000000 0.000000 0.000000 0.000000 0.000000 10.000000 
R_front_hand03_01 0.000000 0.000000 0.000000 0.000000 0.000000 0.000000 10.000000 
R_front_hand01_02 0.000000 0.000000 0.000000 0.000000 0.000000 0.000000 10.000000 
R_front_hand02_02 0.000000 0.000000 0.000000 0.000000 0.000000 0.000000 10.000000 
R_front_hand03_02 0.000000 0.000000 0.000000 0.000000 0.000000 0.000000 10.000000 
null_rope01_connect 0.000000 0.000000 0.000000 0.000000 0.000000 0.000000 10.000000 
Rope1_Seg01 0.000000 0.000000 0.000000 0.000000 0.000000 0.000000 10.000000 
Rope1_Seg02 0.000000 0.000000 0.000000 0.000000 0.000000 0.000000 10.000000 
Rope1_Seg03 0.000000 0.000000 0.000000 0.000000 0.000000 0.000000 10.000000 
Rope1_Seg04 0.000000 0.000000 0.000000 0.000000 0.000000 0.000000 10.000000 
Rope1_Seg05 0.000000 0.000000 0.000000 0.000000 0.000000 0.000000 10.000000 
Rope1_Seg06 0.000000 0.000000 0.000000 0.000000 0.000000 0.000000 10.000000 
Rope1_Seg07 0.000000 0.000000 0.000000 0.000000 0.000000 0.000000 10.000000 
Rope1_Seg09 0.000000 0.000000 0.000000 0.000000 0.000000 0.000000 10.000000 
L_mid_hand01 0.000000 0.000000 0.000000 0.000000 0.000000 0.000000 10.000000 
L_mid_hand02 0.000000 0.000000 0.000000 0.000000 0.000000 0.000000 10.000000 
L_mid_hand03 0.000000 0.000000 0.000000 0.000000 0.000000 0.000000 10.000000 
null_rope02_connect 0.000000 0.000000 0.000000 0.000000 0.000000 0.000000 10.000000 
Rope2_Seg01 0.000000 0.000000 0.000000 0.000000 0.000000 0.000000 10.000000 
Rope2_Seg02 0.000000 0.000000 0.000000 0.000000 0.000000 0.000000 10.000000 
Rope2_Seg03 0.000000 0.000000 0.000000 0.000000 0.000000 0.000000 10.000000 
Rope2_Seg04 0.000000 0.000000 0.000000 0.000000 0.000000 0.000000 10.000000 
Rope2_Seg05 0.000000 0.000000 0.000000 0.000000 0.000000 0.000000 10.000000 
Rope2_Seg06 0.000000 0.000000 0.000000 0.000000 0.000000 0.000000 10.000000 
Rope2_Seg07 0.000000 0.000000 0.000000 0.000000 0.000000 0.000000 10.000000 
Rope2_Seg09 0.000000 0.000000 0.000000 0.000000 0.000000 0.000000 10.000000 
R_mid_hand01 0.000000 0.000000 0.000000 0.000000 0.000000 0.000000 10.000000 
R_mid_hand02 0.000000 0.000000 0.000000 0.000000 0.000000 0.000000 10.000000 
R_mid_hand03 0.000000 0.000000 0.000000 0.000000 0.000000 0.000000 10.000000 
spine02 0.000000 0.000000 0.000000 0.000000 0.000000 0.000000 10.000000 
spine03 0.000000 0.000000 0.000000 0.000000 0.000000 0.000000 10.000000 
pelvis 0.000000 0.000000 0.000000 0.000000 0.000000 0.000000 10.000000 
null_rope03_connect 0.000000 0.000000 0.000000 0.000000 0.000000 0.000000 10.000000 
null_rope04_connect 0.000000 0.000000 0.000000 0.000000 0.000000 0.000000 10.000000 
Rope3_Seg01 0.000000 0.000000 0.000000 0.000000 0.000000 0.000000 10.000000 
Rope3_Seg02 0.000000 0.000000 0.000000 0.000000 0.000000 0.000000 10.000000 
Rope3_Seg03 0.000000 0.000000 0.000000 0.000000 0.000000 0.000000 10.000000 
Rope3_Seg04 0.000000 0.000000 0.000000 0.000000 0.000000 0.000000 10.000000 
Rope3_Seg05 0.000000 0.000000 0.000000 0.000000 0.000000 0.000000 10.000000 
Rope3_Seg06 0.000000 0.000000 0.000000 0.000000 0.000000 0.000000 10.000000 
Rope3_Seg07 0.000000 0.000000 0.000000 0.000000 0.000000 0.000000 10.000000 
Rope3_Seg08 0.000000 0.000000 0.000000 0.000000 0.000000 0.000000 10.000000 
Rope3_Seg09 0.000000 0.000000 0.000000 0.000000 0.000000 0.000000 10.000000 
R_rear_hand01 0.000000 0.000000 0.000000 0.000000 0.000000 0.000000 10.000000 
R_rear_hand02 0.000000 0.000000 0.000000 0.000000 0.000000 0.000000 10.000000 
R_rear_hand03 0.000000 0.000000 0.000000 0.000000 0.000000 0.000000 10.000000 
Rope4_Seg01 0.000000 0.000000 0.000000 0.000000 0.000000 0.000000 10.000000 
Rope4_Seg02 0.000000 0.000000 0.000000 0.000000 0.000000 0.000000 10.000000 
Rope4_Seg03 0.000000 0.000000 0.000000 0.000000 0.000000 0.000000 10.000000 
Rope4_Seg04 0.000000 0.000000 0.000000 0.000000 0.000000 0.000000 10.000000 
Rope4_Seg05 0.000000 0.000000 0.000000 0.000000 0.000000 0.000000 10.000000 
Rope4_Seg06 0.000000 0.000000 0.000000 0.000000 0.000000 0.000000 10.000000 
Rope4_Seg07 0.000000 0.000000 0.000000 0.000000 0.000000 0.000000 10.000000 
Rope4_Seg08 0.000000 0.000000 0.000000 0.000000 0.000000 0.000000 10.000000 
Rope4_Seg09 0.000000 0.000000 0.000000 0.000000 0.000000 0.000000 10.000000 
L_rear_hand01 0.000000 0.000000 0.000000 0.000000 0.000000 0.000000 10.000000 
L_rear_hand02 0.000000 0.000000 0.000000 0.000000 0.000000 0.000000 10.000000 
L_rear_hand03 0.000000 0.000000 0.000000 0.000000 0.000000 0.000000 10.000000 
#Beginning of Data. Separated by tabs
#Fr	Tx	Ty	Tz	Rx	Ry	Rz	SF
[MASTER]
89 358.595123 4427.376953 332.877686 0.001660 0.001660 0.001660 4454.330566
90 274.929871 4483.630859 269.372955 0.001660 0.001660 0.001660 4500.121094
[root]
89 78.947960 -208.495148 751.884460 -78.788727 -31.073696 -86.522232 784.240540
90 67.135643 -188.953979 817.288940 -81.579163 -32.225864 -88.522888 841.529541
[chest]
89 -84.512650 -34.090519 0.000000 0.265645 -8.216007 173.981674 91.129311
90 -84.512650 -34.090519 0.000000 -2.607861 -7.323828 175.831650 91.129311
[L_mid_tent01]
89 27.298914 22.179241 -249.918701 -17.775341 16.849955 31.912045 252.381668
90 27.298910 22.179243 -249.918701 -16.935024 19.252583 34.924011 252.381668
[R_mid_tent01]
89 23.228794 24.509907 226.238495 163.618073 -6.208432 19.882288 228.744751
90 23.228794 24.509907 226.238495 165.495178 -8.308253 24.052692 228.744751
[spine01]
89 -0.361383 -0.195265 0.000000 0.001722 0.001595 4.384558 0.410763
90 -0.361383 -0.195265 0.000000 0.001738 0.001578 5.518173 0.410763
[Bip01_Neck]
89 165.484543 71.581718 0.000119 176.643677 -1.657967 43.431911 180.302734
90 165.484543 71.581718 0.000119 176.643677 -1.657967 43.431911 180.302734
[L_humerus]
89 -13.983130 -135.272980 -120.471481 172.292099 23.516014 -96.043358 181.680161
90 -13.983130 -135.272980 -120.471481 172.302490 30.177387 -96.243286 181.680161
[R_humerus]
89 -13.983309 -135.273102 125.287651 -179.141968 -20.206095 -83.840523 184.909012
90 -13.983309 -135.273102 125.287651 -179.957443 -26.854237 -83.155724 184.909012
[weapon_bone]
89 235.964890 -300.705902 0.000000 0.000000 -89.951546 -128.212341 382.234833
90 235.964890 -300.705902 0.000000 0.000000 -89.951546 -128.212341 382.234833
[Bip01_Head]
89 208.807907 178.653671 25.761999 1.824166 2.953323 -43.409203 276.010071
90 209.440277 179.616806 23.854776 0.700036 3.078080 -43.572315 276.941284
[eye_left_bone]
89 -24.626970 125.451866 -64.772606 0.000000 -90.000000 -99.840431 143.318359
90 -24.626970 125.451866 -64.772606 0.000000 -90.000000 -99.840431 143.318359
[eye_right_bone]
89 -24.626970 125.451866 64.327362 0.000000 -89.965736 80.156380 143.117676
90 -24.626970 125.451866 64.327362 0.000000 -89.965736 80.156380 143.117676
[L_forearm]
89 322.776093 0.000000 -0.000119 0.000306 -0.002327 -105.005081 322.776093
90 322.776093 0.000000 -0.000119 0.000315 -0.002326 -105.412956 322.776093
[L_front_hand]
89 241.149185 -0.042021 -3.300071 60.145355 -2.204067 -5.138964 241.171753
90 241.149185 -0.042021 -3.300071 60.145355 -2.204067 -5.138964 241.171753
[L_weapon_bone]
89 156.183838 0.000000 0.000000 0.000014 0.000007 0.000001 156.183838
90 156.183838 0.000000 0.000000 0.000014 0.000007 0.000001 156.183838
[L_front_hand01_01]
89 86.095154 20.947098 -0.655860 -0.366594 -0.477154 75.385574 88.609184
90 86.095154 20.947098 -0.655860 -0.366594 -0.477154 75.385574 88.609184
[L_front_hand02_01]
89 86.935165 -11.437475 24.513514 154.399796 -59.883835 -61.369587 91.046425
90 86.935165 -11.437475 24.513514 154.399796 -59.883835 -61.369587 91.046425
[L_front_hand03_01]
89 86.637497 -14.123976 -20.424902 -153.913849 58.118122 -62.702866 90.126129
90 86.637497 -14.123976 -20.424902 -153.913879 58.118130 -62.702892 90.126129
[L_front_hand01_02]
89 71.020905 -0.000179 0.000030 0.000334 -0.002323 -106.379684 71.020905
90 71.020905 -0.000179 0.000030 0.000334 -0.002323 -106.379684 71.020905
[L_front_hand02_02]
89 71.020927 -0.000119 0.000060 0.000334 -0.002323 -106.379684 71.020927
90 71.020927 -0.000119 0.000060 0.000334 -0.002323 -106.379684 71.020927
[L_front_hand03_02]
89 71.020905 -0.000060 0.000060 0.000334 -0.002323 -106.379684 71.020905
90 71.020905 -0.000060 0.000060 0.000334 -0.002323 -106.379684 71.020905
[R_forearm]
89 322.776428 -0.000060 0.000030 0.202003 0.065465 -108.237297 322.776428
90 322.776428 -0.000060 0.000030 0.202016 0.065425 -108.214622 322.776428
[R_front_hand]
89 238.847015 -0.006795 2.210259 -2.635298 -10.645461 -26.312506 238.857239
90 238.847015 -0.006795 2.210259 -2.635298 -10.645461 -26.312506 238.857239
[R_weapon_bone]
89 155.664093 0.002503 -0.000030 0.003487 0.001180 -90.988930 155.664078
90 155.664093 0.002503 -0.000030 0.003487 0.001180 -90.988930 155.664078
[R_front_hand01_01]
89 87.624611 14.231146 22.918642 -154.633514 -59.950634 61.746063 91.683487
90 87.624611 14.231146 22.918642 -154.633499 -59.950619 61.746044 91.683487
[R_front_hand02_01]
89 89.356956 14.367283 -19.491137 154.602661 58.302849 63.744389 92.579636
90 89.356956 14.367283 -19.491137 154.602661 58.302849 63.744389 92.579636
[R_front_hand03_01]
89 87.286232 -22.307278 -0.143439 0.162155 -0.423168 -75.767921 90.091743
90 87.286232 -22.307278 -0.143439 0.162155 -0.423168 -75.767921 90.091743
[R_front_hand01_02]
89 71.020905 0.000060 0.000119 0.002323 -0.000334 106.381714 71.020905
90 71.020905 0.000060 0.000119 0.002323 -0.000334 106.381721 71.020905
[R_front_hand02_02]
89 71.020844 -0.000030 -0.000119 0.002323 -0.000334 106.381714 71.020836
90 71.020844 -0.000030 -0.000119 0.002323 -0.000334 106.381721 71.020836
[R_front_hand03_02]
89 71.020905 0.000000 0.000030 0.002323 -0.000334 106.381714 71.020905
90 71.020905 0.000000 0.000030 0.002323 -0.000334 106.381721 71.020905
[null_rope01_connect]
89 328.732483 0.000000 -0.000238 -142.232315 -79.006134 -131.407608 328.732483
90 328.732483 0.000000 -0.000238 -133.008972 -73.816750 -142.833939 328.732483
[Rope1_Seg01]
89 -0.000034 -0.000273 0.000018 18.228968 21.373930 -145.836777 0.000276
90 -0.000034 -0.000276 0.000017 15.073998 18.428492 -147.802322 0.000278
[Rope1_Seg02]
89 139.999863 -0.000179 0.000000 -6.660081 -10.492735 1.434862 139.999863
90 139.999863 -0.000179 0.000000 -7.306069 -10.217445 0.207999 139.999863
[Rope1_Seg03]
89 139.999924 0.000060 -0.000060 -9.331395 -9.761456 -1.161985 139.999924
90 139.999924 0.000060 -0.000060 -9.181502 -9.053062 -2.092114 139.999924
[Rope1_Seg04]
89 139.999924 -0.000060 -0.000119 -9.552005 -4.962896 -7.776860 139.999924
90 139.999924 -0.000060 -0.000119 -8.226715 -3.831826 -7.612281 139.999924
[Rope1_Seg05]
89 139.999832 0.000119 -0.000060 -9.784000 -11.882998 3.812599 139.999832
90 139.999832 0.000119 -0.000060 -9.343814 -10.991784 1.844942 139.999832
[Rope1_Seg06]
89 139.999954 0.000119 -0.000060 -55.696793 -24.448637 12.991999 139.999954
90 139.999954 0.000119 -0.000060 -33.701412 -21.630774 8.247829 139.999954
[Rope1_Seg07]
89 139.999985 0.000060 0.000000 -61.443604 -14.540498 -7.883677 139.999985
90 139.999985 0.000060 0.000000 -46.075352 -14.251908 -3.404098 139.999985
[Rope1_Seg09]
89 121.602913 0.000119 -0.000089 -89.793175 -1.359789 0.847147 121.602913
90 121.602913 0.000119 -0.000089 -89.793175 -1.359789 0.847147 121.602913
[L_mid_hand01]
89 103.859421 1.038730 8.195221 130.544373 -67.584534 -38.866943 104.187431
90 103.859421 1.038730 8.195221 130.544373 -67.584534 -38.866943 104.187431
[L_mid_hand02]
89 105.572853 -4.139662 -10.864139 -168.923172 43.409309 -73.498886 106.211075
90 105.572853 -4.139662 -10.864139 -168.923172 43.409321 -73.498909 106.211075
[L_mid_hand03]
89 104.641464 17.579376 -3.913581 -6.012627 17.808174 74.893669 106.179977
90 104.641464 17.579376 -3.913581 -6.012627 17.808174 74.893669 106.179977
[null_rope02_connect]
89 328.732849 0.000179 -0.000119 -56.680538 75.851570 19.892879 328.732849
90 328.732849 0.000179 -0.000119 -54.051464 75.430382 25.619961 328.732849
[Rope2_Seg01]
89 0.000007 0.000287 0.000000 -31.645630 0.556475 -73.605476 0.000287
90 0.000006 0.000288 0.000000 -35.675522 0.960173 -80.252266 0.000288
[Rope2_Seg02]
89 139.999741 -0.000060 -0.000119 -23.931324 -4.781806 -22.954681 139.999756
90 139.999741 -0.000060 -0.000119 -19.257355 -5.004427 -21.441853 139.999756
[Rope2_Seg03]
89 140.000107 0.000030 0.000000 -11.734900 -4.448997 -12.780138 140.000107
90 140.000107 0.000030 0.000000 -10.299340 -5.561018 -11.975145 140.000107
[Rope2_Seg04]
89 139.999802 0.000000 -0.000060 12.885260 21.921028 10.745370 139.999802
90 139.999802 0.000000 -0.000060 12.803405 23.768126 11.567430 139.999802
[Rope2_Seg05]
89 139.999985 -0.000060 0.000119 5.829614 22.021095 8.537572 139.999985
90 139.999985 -0.000060 0.000119 4.630677 22.356945 8.192420 139.999985
[Rope2_Seg06]
89 139.999893 -0.000030 -0.000119 0.265899 7.115251 1.539485 139.999893
90 139.999893 -0.000030 -0.000119 -0.030784 6.811976 1.535754 139.999893
[Rope2_Seg07]
89 139.999893 0.000060 -0.000060 -0.088985 3.974584 0.810150 139.999893
90 139.999893 0.000060 -0.000060 -0.237870 3.797549 0.835013 139.999893
[Rope2_Seg09]
89 121.338966 0.000089 -0.000060 33.793236 -1.359788 -0.847141 121.338966
90 121.338966 0.000089 -0.000060 33.793236 -1.359788 -0.847141 121.338966
[R_mid_hand01]
89 104.680779 11.144459 -10.335981 -16.212063 45.237247 70.462852 105.778534
90 104.680779 11.144459 -10.335981 -16.212063 45.237247 70.462852 105.778534
[R_mid_hand02]
89 104.070427 2.443552 8.231699 49.067368 -67.749771 39.286453 104.424065
90 104.070427 2.443552 8.231699 49.067368 -67.749771 39.286453 104.424065
[R_mid_hand03]
89 106.028137 -11.221827 -5.996406 -177.101105 15.551026 -76.585571 106.788818
90 106.028137 -11.221827 -5.996406 -177.101105 15.551026 -76.585571 106.788818
[spine02]
89 129.756927 0.001550 0.000119 0.375193 -4.043273 -13.158000 129.756927
90 129.756927 0.001550 0.000119 0.372994 -4.043494 -13.118900 129.756927
[spine03]
89 78.614182 0.081482 -4.899023 1.905763 3.828166 16.624769 78.766724
90 78.614182 0.081482 -4.899024 1.904442 3.828577 16.606155 78.766724
[pelvis]
89 169.435242 0.051022 0.000000 0.027517 -0.189350 -12.580734 169.435257
90 169.435242 0.051022 0.000000 0.028043 -0.189273 -12.899233 169.435257
[null_rope03_connect]
89 -1.257226 -2.466202 137.391083 43.517525 -75.513000 81.996452 137.418976
90 -1.257226 -2.466202 137.391083 39.981121 -79.566132 86.063850 137.418976
[null_rope04_connect]
89 -1.259640 -2.480268 -137.844437 43.517525 -75.513000 81.996452 137.872513
90 -1.259640 -2.480268 -137.844437 39.981121 -79.566132 86.063850 137.872513
[Rope3_Seg01]
89 -0.000036 -0.000273 0.000000 15.653673 2.874354 -93.735588 0.000275
90 -0.000036 -0.000276 0.000000 15.130756 3.687797 -95.914444 0.000278
[Rope3_Seg02]
89 139.999924 -0.000119 0.000060 2.216693 -8.439136 7.283424 139.999924
90 139.999924 -0.000119 0.000060 2.436636 -7.757620 7.080180 139.999924
[Rope3_Seg03]
89 139.999924 -0.000119 0.000119 1.844495 -8.437658 7.892077 139.999924
90 139.999924 -0.000119 0.000119 2.097022 -8.026000 8.023415 139.999924
[Rope3_Seg04]
89 139.999924 0.000119 0.000000 1.290405 -8.194430 8.157613 139.999924
90 139.999924 0.000119 0.000000 1.509414 -8.273956 8.912319 139.999924
[Rope3_Seg05]
89 139.999924 -0.000238 0.000060 0.165469 0.124493 0.550825 139.999924
90 139.999924 -0.000238 0.000060 0.125992 0.283248 0.278944 139.999924
[Rope3_Seg06]
89 139.999893 -0.000119 -0.000060 -0.861335 5.656034 -4.726598 139.999893
90 139.999893 -0.000119 -0.000060 -1.121199 5.693890 -5.528134 139.999893
[Rope3_Seg07]
89 139.999771 0.000060 -0.000119 -0.146152 3.174913 -2.298208 139.999771
90 139.999771 0.000060 -0.000119 -0.258475 2.989109 -2.572975 139.999771
[Rope3_Seg08]
89 139.999985 -0.000060 0.000000 0.094967 2.238754 -1.554707 139.999985
90 139.999985 -0.000060 0.000000 0.004563 2.084229 -1.744434 139.999985
[Rope3_Seg09]
89 90.185997 -0.000179 -0.000060 89.793228 -1.359877 -0.847183 90.185997
90 90.185997 -0.000179 -0.000060 89.793228 -1.359877 -0.847183 90.185997
[R_rear_hand01]
89 103.366196 -6.073594 -10.757982 -177.714203 24.565960 -73.910950 104.101845
90 103.366196 -6.073594 -10.757982 -177.714203 24.565960 -73.910950 104.101845
[R_rear_hand02]
89 100.509819 12.039542 -7.992327 -12.874829 36.868488 72.167213 101.543350
90 100.509819 12.039542 -7.992327 -12.874829 36.868488 72.167213 101.543350
[R_rear_hand03]
89 101.539970 5.215704 5.435467 71.484581 -71.816628 21.513813 101.819031
90 101.539970 5.215704 5.435467 71.484581 -71.816628 21.513813 101.819031
[Rope4_Seg01]
89 0.000010 0.000038 -0.000114 -97.813156 6.405147 -94.603790 0.000121
90 0.000010 0.000038 -0.000114 -98.523117 4.743764 -100.148460 0.000121
[Rope4_Seg02]
89 139.999985 0.000060 0.000119 0.192323 6.362297 2.717009 139.999985
90 139.999985 0.000060 0.000119 0.247366 6.851062 4.268367 139.999985
[Rope4_Seg03]
89 139.999924 0.000000 -0.000238 0.363573 8.291652 2.666099 139.999924
90 139.999924 0.000000 -0.000238 0.283436 8.824491 4.871177 139.999924
[Rope4_Seg04]
89 139.999985 0.000000 0.000119 0.870780 13.015641 5.473989 139.999985
90 139.999985 0.000000 0.000119 0.304872 12.444795 7.068933 139.999985
[Rope4_Seg05]
89 139.999802 -0.000060 -0.000119 -2.098817 5.787787 7.727162 139.999802
90 139.999802 -0.000060 -0.000119 -3.303700 4.289806 7.493523 139.999802
[Rope4_Seg06]
89 139.999924 0.000000 0.000060 -0.926555 1.843171 2.578924 139.999924
90 139.999924 0.000000 0.000060 -1.614666 0.895911 2.714713 139.999924
[Rope4_Seg07]
89 139.999802 0.000000 0.000000 -0.452624 1.224223 1.460874 139.999802
90 139.999802 0.000000 0.000000 -0.807336 0.868620 1.593128 139.999802
[Rope4_Seg08]
89 139.999924 0.000000 0.000119 -1.823146 0.702856 0.856101 139.999924
90 139.999924 0.000000 0.000119 -2.037055 0.493222 0.937684 139.999924
[Rope4_Seg09]
89 90.185791 0.000060 0.000060 -135.617828 2.228885 0.850567 90.185791
90 90.185791 0.000060 0.000060 -135.617828 2.228885 0.850567 90.185791
[L_rear_hand01]
89 101.696655 -8.392275 -7.654577 -12.874829 -36.868488 107.832764 102.329041
90 101.696655 -8.392275 -7.654577 -12.874829 -36.868488 107.832764 102.329041
[L_rear_hand02]
89 102.726799 -1.568258 5.773216 71.484581 71.816628 158.486160 102.900848
90 102.726799 -1.568258 5.773216 71.484581 71.816628 158.486160 102.900848
[L_rear_hand03]
89 104.552910 9.721220 -10.420293 -177.714203 -24.565960 -106.089035 105.519653
90 104.552910 9.721220 -10.420293 -177.714203 -24.565960 -106.089035 105.519653
